<?xml version="1.0" encoding="UTF-8" standalone="no"?>
<!-- Created with Inkscape (http://www.inkscape.org/) -->

<svg
   version="1.1"
   id="svg1944"
   xml:space="preserve"
   width="682.66669"
   height="682.66669"
   viewBox="0 0 682.66669 682.66669"
   xmlns="http://www.w3.org/2000/svg"
   xmlns:svg="http://www.w3.org/2000/svg"><defs
     id="defs1948"><clipPath
       clipPathUnits="userSpaceOnUse"
       id="clipPath1966"><path
         d="M 0,512 H 512 V 0 H 0 Z"
         id="path1964" /></clipPath></defs><g
     id="g1950"
     transform="matrix(1.3333333,0,0,-1.3333333,0,682.66667)"><g
       id="g1952"
       transform="translate(406.0992,168.8376)"><path
         d="M 0,0 V -99.899"
         style="fill:none;stroke:#000000;stroke-width:15;stroke-linecap:round;stroke-linejoin:round;stroke-miterlimit:10;stroke-dasharray:none;stroke-opacity:1"
         id="path1954" /></g><g
       id="g1956"
       transform="translate(456.0489,118.8878)"><path
         d="M 0,0 H -99.899"
         style="fill:none;stroke:#000000;stroke-width:15;stroke-linecap:round;stroke-linejoin:round;stroke-miterlimit:10;stroke-dasharray:none;stroke-opacity:1"
         id="path1958" /></g><g
       id="g1960"><g
         id="g1962"
         clip-path="url(#clipPath1966)"><g
           id="g1968"
           transform="translate(188.3183,358.9796)"><path
             d="m 0,0 c 0,-19.862 -16.102,-35.964 -35.964,-35.964 -19.862,0 -35.964,16.102 -35.964,35.964 0,19.862 16.102,35.964 35.964,35.964 C -16.102,35.964 0,19.862 0,0 Z"
             style="fill:none;stroke:#000000;stroke-width:15;stroke-linecap:round;stroke-linejoin:round;stroke-miterlimit:10;stroke-dasharray:none;stroke-opacity:1"
             id="path1970" /></g><g
           id="g1972"
           transform="translate(151.7863,210.3541)"><path
             d="M 0,0 V -11.858"
             style="fill:none;stroke:#000000;stroke-width:15;stroke-linecap:round;stroke-linejoin:round;stroke-miterlimit:10;stroke-dasharray:none;stroke-opacity:1"
             id="path1974" /></g><g
           id="g1976"
           transform="translate(282.8267,210.3541)"><path
             d="M 0,0 V -11.858"
             style="fill:none;stroke:#000000;stroke-width:15;stroke-linecap:round;stroke-linejoin:round;stroke-miterlimit:10;stroke-dasharray:none;stroke-opacity:1"
             id="path1978" /></g><g
           id="g1980"
           transform="translate(233.4777,199.3211)"><path
             d="m 0,0 c -3.815,-4.365 -9.642,-7.155 -16.171,-7.155 -6.529,0 -12.356,2.79 -16.172,7.155"
             style="fill:none;stroke:#000000;stroke-width:15;stroke-linecap:round;stroke-linejoin:round;stroke-miterlimit:10;stroke-dasharray:none;stroke-opacity:1"
             id="path1982" /></g><g
           id="g1984"
           transform="translate(112.8652,491.5132)"><path
             d="m 0,0 h -66.498 c -21.465,0 -38.867,-17.401 -38.867,-38.867 v -344.841 c 0,-21.466 17.402,-38.867 38.867,-38.867 h 274.941 c -8.644,14.642 -13.61,31.715 -13.61,49.95 0,54.345 44.056,98.4 98.401,98.4 18.235,0 35.308,-4.965 49.95,-13.61 V -38.867 C 343.184,-17.401 325.782,0 304.316,0 H 30"
             style="fill:none;stroke:#000000;stroke-width:15;stroke-linecap:round;stroke-linejoin:round;stroke-miterlimit:10;stroke-dasharray:none;stroke-opacity:1"
             id="path1986" /></g><g
           id="g1988"
           transform="translate(485.6338,60.9487)"><path
             d="m 0,0 c 11.861,16.254 18.866,36.277 18.866,57.939 0,54.345 -44.055,98.401 -98.401,98.401 -54.345,0 -98.401,-44.056 -98.401,-98.401 0,-54.345 44.056,-98.401 98.401,-98.401 21.969,0 42.253,7.201 58.628,19.369"
             style="fill:none;stroke:#000000;stroke-width:15;stroke-linecap:round;stroke-linejoin:round;stroke-miterlimit:10;stroke-dasharray:none;stroke-opacity:1"
             id="path1990" /></g><g
           id="g1992"
           transform="translate(57.4502,441.563)"><path
             d="m 0,0 v -210.788 0 0 l 82.596,46.461 c 10.54,5.929 23.571,5.159 33.34,-1.97 l 19.916,-14.535 c 10.416,-7.602 24.46,-7.93 35.219,-0.822 l 78.795,52.049 c 12.241,8.085 28.48,6.442 38.853,-3.932 l 59.93,-59.938 V 0 Z"
             style="fill:none;stroke:#000000;stroke-width:15;stroke-linecap:round;stroke-linejoin:round;stroke-miterlimit:10;stroke-dasharray:none;stroke-opacity:1"
             id="path1994" /></g><g
           id="g1996"
           transform="translate(406.0991,217.2886)"><path
             d="m 0,0 v 30.799 l -59.93,59.938 c -10.373,10.374 -26.612,12.017 -38.853,3.932 L -177.578,42.62 c -10.759,-7.107 -24.803,-6.779 -35.219,0.822 l -19.916,14.535 c -9.769,7.129 -22.8,7.899 -33.34,1.97 l -82.596,-46.46 V -98.401 H -98.401 C -98.401,-44.056 -54.345,0 0,0 Z"
             style="fill:none;stroke:#000000;stroke-width:15;stroke-linecap:round;stroke-linejoin:round;stroke-miterlimit:10;stroke-dasharray:none;stroke-opacity:1"
             id="path1998" /></g><g
           id="g2000"
           transform="translate(-385.6761,122.5573)"><path
             d="m 0,0 c 28.527,-21.145 62.08,-42.364 101.236,-63.342 5.266,-2.822 11.614,-2.822 16.88,0 252.142,135.085 272.212,280.159 210.938,351.248"
             style="fill:none;stroke:#000000;stroke-width:15;stroke-linecap:round;stroke-linejoin:round;stroke-miterlimit:10;stroke-dasharray:none;stroke-opacity:1"
             id="path2002" /></g></g></g></g></svg>
