<svg height="511pt" viewBox="-79 0 511 511.99934" width="511pt" xmlns="http://www.w3.org/2000/svg"><path d="m8 382.871094c-4.140625 0-7.5 3.355468-7.5 7.5v94.886718c0 20.992188 24.257812 34.011719 41.753906 22.324219l135.136719-90.242187s134.992187 90.148437 135.132813 90.242187c17.546874 11.71875 41.757812-1.308593 41.757812-22.324219v-380.964843c0-4.140625-3.359375-7.5-7.5-7.5-4.144531 0-7.503906 3.359375-7.503906 7.5v380.964843c0 9.304688-10.671875 15.023438-18.421875 9.847657l-139.300781-93.023438c-2.519532-1.683593-5.808594-1.683593-8.332032 0 0 0-138.917968 92.769531-139.300781 93.023438-7.746094 5.175781-18.417969-.5625-18.417969-9.847657v-94.886718c0-4.144532-3.359375-7.5-7.503906-7.5zm0 0"/><path d="m354.28125 46.863281c0-25.839843-21.023438-46.863281-46.863281-46.863281h-260.054688c-25.839843 0-46.863281 21.023438-46.863281 46.863281v313.5c0 4.144531 3.359375 7.503907 7.5 7.503907 4.144531 0 7.503906-3.359376 7.503906-7.503907v-313.5c0-17.566406 14.292969-31.859375 31.859375-31.859375h260.054688c17.566406 0 31.859375 14.292969 31.859375 31.859375v27.421875c0 4.144532 3.359375 7.503906 7.503906 7.503906 4.140625 0 7.5-3.359374 7.5-7.503906zm0 0"/><path d="m95.613281 162.027344v-16.160156c0-4.140626-3.359375-7.5-7.5-7.5-4.144531 0-7.503906 3.359374-7.503906 7.5v16.160156c0 4.140625 3.359375 7.5 7.503906 7.5 4.140625 0 7.5-3.359375 7.5-7.5zm0 0"/><path d="m274.167969 162.027344v-16.160156c0-4.140626-3.355469-7.5-7.5-7.5s-7.503907 3.359374-7.503907 7.5v16.160156c0 4.140625 3.359376 7.5 7.503907 7.5s7.5-3.359375 7.5-7.5zm0 0"/><path d="m177.390625 178.152344c10.753906 0 20.84375-4.488282 27.683594-12.3125 2.726562-3.121094 2.40625-7.859375-.710938-10.585938-3.121093-2.726562-7.859375-2.410156-10.585937.710938-3.992188 4.566406-9.964844 7.183594-16.386719 7.183594-6.425781 0-12.398437-2.617188-16.386719-7.183594-2.726562-3.121094-7.464844-3.4375-10.585937-.710938-3.121094 2.726563-3.4375 7.464844-.710938 10.585938 6.839844 7.824218 16.929688 12.3125 27.683594 12.3125zm0 0"/></svg>