<svg height="512pt" viewBox="-65 0 512 512.00052" width="512pt" xmlns="http://www.w3.org/2000/svg"><path d="m271.578125 156.984375c-4.140625 0-7.496094-3.359375-7.496094-7.5v-12.453125c0-4.140625 3.355469-7.496094 7.496094-7.496094 4.144531 0 7.5 3.355469 7.5 7.496094v12.453125c0 4.140625-3.355469 7.5-7.5 7.5zm0 0"/><path d="m110.277344 156.984375c-4.140625 0-7.5-3.359375-7.5-7.5v-12.453125c0-4.140625 3.359375-7.496094 7.5-7.496094 4.144531 0 7.5 3.355469 7.5 7.496094v12.453125c0 4.140625-3.355469 7.5-7.5 7.5zm0 0"/><path d="m334.648438 512c-8.808594 0-17.582032-2.535156-25.433594-7.582031l-94.046875-60.410157c-14.722657-9.457031-33.75-9.457031-48.476563 0l-94.046875 60.410157c-14.738281 9.46875-32.714843 10.105469-48.089843 1.707031-15.375-8.394531-24.554688-23.867188-24.554688-41.386719v-369.402343c0-52.570313 42.765625-95.335938 95.335938-95.335938h191.1875c52.566406 0 95.335937 42.765625 95.335937 95.335938v149.316406c0 4.144531-3.359375 7.5-7.5 7.5s-7.5-3.355469-7.5-7.5v-149.316406c0-44.296876-36.039063-80.335938-80.335937-80.335938h-191.1875c-44.296876 0-80.335938 36.039062-80.335938 80.335938v369.402343c0 11.949219 6.257812 22.5 16.742188 28.226563 10.484374 5.726562 22.746093 5.289062 32.796874-1.167969l94.046876-60.40625c19.644531-12.621094 45.039062-12.621094 64.6875 0l94.042968 60.40625c10.054688 6.457031 22.3125 6.894531 32.796875 1.167969 10.484375-5.726563 16.746094-16.277344 16.746094-28.226563v-186.40625c0-4.140625 3.355469-7.496093 7.496094-7.496093 4.144531 0 7.5 3.355468 7.5 7.496093v186.40625c0 17.519531-9.175781 32.992188-24.550781 41.386719-7.179688 3.925781-14.933594 5.875-22.65625 5.875zm0 0"/><path d="m190.929688 205.683594c-19.628907 0-35.597657-15.972656-35.597657-35.601563v-20.425781c0-8.367188 6.804688-15.171875 15.167969-15.171875h40.855469c8.367187 0 15.171875 6.804687 15.171875 15.171875v20.425781c0 19.632813-15.96875 35.601563-35.597656 35.601563zm-20.429688-56.199219c-.09375 0-.171875 20.601563-.171875 20.601563 0 11.355468 9.242187 20.597656 20.601563 20.597656 11.355468 0 20.597656-9.238282 20.597656-20.597656v-20.429688c0-.09375-41.027344-.171875-41.027344-.171875zm0 0"/></svg>