<svg id="Capa_1" enable-background="new 0 0 512 512" height="512" viewBox="0 0 512 512" width="512" xmlns="http://www.w3.org/2000/svg"><g><g><path d="m10.413 501.6c6.517 6.517 14.931 10.079 23.658 10.365.233.022.469.036.708.036h399.274c18.801 0 34.097-15.296 34.097-34.097s-15.296-34.097-34.097-34.097h-265.235l322.358-322.357c27.738-27.739 27.738-72.873 0-100.612-13.437-13.438-31.303-20.838-50.306-20.838s-36.869 7.4-50.306 20.837l-353.701 353.7c-.754.754-1.338 1.66-1.714 2.657l-32.803 86.997c-4.956 13.143-1.864 27.477 8.067 37.409zm34.67-108.236 73.565 73.565-32.332 12.192-53.424-53.424zm87.089 65.875-34.395-34.395 76.07-76.07c2.929-2.93 2.929-7.678 0-10.607-2.929-2.928-7.678-2.928-10.606 0l-76.07 76.071-34.396-34.396 298.57-298.572 34.395 34.395-76.07 76.07c-2.929 2.93-2.929 7.678 0 10.607 1.464 1.464 3.384 2.196 5.303 2.196s3.839-.732 5.303-2.196l76.071-76.071 34.396 34.396zm348.397-348.396-39.219 39.219-79.398-79.398 39.219-39.219c10.604-10.605 24.703-16.445 39.699-16.445s29.095 5.84 39.699 16.444c21.89 21.89 21.89 57.508 0 79.399zm-46.515 386.157h-352.64l5.009-1.889c.463-.125.915-.295 1.352-.51l47.043-17.739c.998-.376 1.903-.961 2.657-1.714l16.343-16.343h280.236c10.53 0 19.097 8.566 19.097 19.097s-8.568 19.098-19.097 19.098zm-417.673-27.516 10.702-28.382 43.828 43.827-28.382 10.702c-2.365.891-4.765 1.34-7.124 1.368h-.241c-5.205-.001-10.195-2.059-14.144-6.007-5.797-5.796-7.53-13.837-4.639-21.508z"/><path d="m288.282 214.16 8.84 8.841c2.929 2.929 2.929 7.678 0 10.606-1.464 1.464-3.384 2.196-5.303 2.196s-3.839-.732-5.303-2.197l-8.84-8.841c-2.929-2.929-2.929-7.678 0-10.606 2.928-2.928 7.677-2.929 10.606.001z"/><path d="m196.27 306.171 8.84 8.84c2.929 2.929 2.929 7.678 0 10.606-1.464 1.465-3.384 2.197-5.303 2.197s-3.839-.732-5.303-2.196l-8.84-8.84c-2.929-2.929-2.929-7.678 0-10.606 2.928-2.93 7.677-2.929 10.606-.001z"/><path d="m233.935 278.692c4.403.301 8.722-1.31 11.837-4.425 3.115-3.114 4.727-7.429 4.424-11.837-.284-4.132 2.836-7.712 6.968-7.996 4.139-.282 7.712 2.835 7.997 6.969.6 8.735-2.601 17.29-8.782 23.471-5.689 5.69-13.389 8.854-21.389 8.854-.692 0-1.388-.023-2.084-.071-4.132-.284-7.252-3.864-6.968-7.997.285-4.133 3.86-7.252 7.997-6.968z"/></g></g></svg>