<?xml version="1.0" encoding="iso-8859-1"?>
<!-- Generator: Adobe Illustrator 21.0.0, SVG Export Plug-In . SVG Version: 6.00 Build 0)  -->
<svg version="1.1" id="Capa_1" xmlns="http://www.w3.org/2000/svg" xmlns:xlink="http://www.w3.org/1999/xlink" x="0px" y="0px"
	 viewBox="0 0 512.001 512.001" style="enable-background:new 0 0 512.001 512.001;" xml:space="preserve">
<polygon style="fill:#506366;" points="421.324,90.682 348.635,57.185 309.45,96.369 341.548,170.459 415.637,202.556 
	454.822,163.372 "/>
<polygon style="fill:#3A484A;" points="421.324,90.683 406.795,83.988 433.597,142.148 394.413,181.332 335.132,155.651 
	341.548,170.458 415.637,202.556 454.821,163.372 "/>
<rect x="39.427" y="208.217" transform="matrix(0.7071 -0.7071 0.7071 0.7071 -133.3383 244.6937)" style="fill:#57D0E6;" width="378.552" height="150.166"/>
<rect x="81.912" y="310.771" transform="matrix(0.7071 -0.7071 0.7071 0.7071 -150.9314 287.177)" style="fill:#4DB8CC;" width="378.552" height="30.015"/>
<path style="fill:#EFEDEE;" d="M492.774,125.42l-37.952,37.952L348.635,57.185l37.952-37.952
	c15.806-15.806,41.426-15.813,57.233-0.007l48.954,48.954C508.58,83.986,508.58,109.614,492.774,125.42z"/>
<path style="fill:#D2D2D2;" d="M492.774,68.18L471.55,46.956c15.806,15.806,15.806,41.433,0,57.24l-37.952,37.952l21.224,21.224
	l37.952-37.952C508.58,109.614,508.58,83.986,492.774,68.18z"/>
<polygon style="fill:#FADC60;" points="155.587,427.209 112.564,434.834 120.188,391.81 77.165,399.435 84.79,356.413 
	41.775,364.045 19.496,436.794 31.031,480.976 75.213,492.511 147.962,470.232 "/>
<polygon style="fill:#F1C42C;" points="155.587,427.209 129.79,431.78 126.738,449.007 53.989,471.286 26.636,464.146 
	31.031,480.976 75.213,492.511 147.962,470.231 "/>
<path style="fill:#506366;" d="M75.213,492.511l-35.761,10.951c-2.39,0.727-4.871,1.188-7.372,1.166
	c-13.497-0.104-24.596-11.203-24.708-24.708c-0.015-2.494,0.438-4.982,1.173-7.365l10.951-35.761L75.213,492.511z"/>
<path style="fill:#3A484A;" d="M53.989,471.286l-35.761,10.951c-2.39,0.727-4.87,1.188-7.372,1.166
	c-1.093-0.008-2.163-0.114-3.22-0.262c1.686,12.001,12.039,21.391,24.444,21.486c2.502,0.022,4.982-0.438,7.372-1.166l35.761-10.951
	L53.989,471.286z"/>
<path d="M188.302,341.65c1.92,0,3.841-0.732,5.306-2.198c2.931-2.93,2.931-7.682,0-10.611l-9.704-9.704
	c-2.931-2.931-7.682-2.931-10.611,0c-2.931,2.93-2.931,7.682,0,10.611l9.704,9.704C184.461,340.917,186.382,341.65,188.302,341.65z"
	/>
<path d="M295.54,234.411c1.92,0,3.841-0.732,5.306-2.198c2.931-2.931,2.931-7.682,0-10.611l-9.704-9.704
	c-2.93-2.931-7.682-2.931-10.611,0c-2.93,2.931-2.93,7.681,0,10.611l9.704,9.704C291.699,233.679,293.619,234.411,295.54,234.411z"
	/>
<path d="M228.514,285.599c-4.139-0.277-7.711,2.848-7.989,6.983c-0.354,5.265,4.378,8.06,9.051,8.06
	c8.423,0,16.648-3.445,22.832-9.629c6.688-6.689,10.173-15.764,9.56-24.898c-0.278-4.135-3.854-7.26-7.99-6.984
	c-4.135,0.277-7.262,3.855-6.984,7.99c0.323,4.813-1.571,9.653-5.198,13.28C238.168,284.027,233.329,285.923,228.514,285.599z"/>
<path d="M415.345,0.061c-12.371-0.01-24.77,4.513-33.931,13.675L125.35,269.799c-2.931,2.931-2.931,7.682,0,10.611
	c2.931,2.93,7.682,2.93,10.611,0L309.582,106.79l95.574,95.574L159.642,447.88c0,0,3.452-19.473,3.466-19.553
	c0.877-4.952-3.779-9.571-8.698-8.698l-32.451,5.751c0,0,5.72-32.279,5.751-32.451c0.865-4.884-3.796-9.571-8.698-8.698
	l-32.451,5.751c0,0,5.737-32.37,5.751-32.451c0.896-5.061-3.644-9.595-8.699-8.698l-19.538,3.467l51.353-51.353
	c2.931-2.931,2.931-7.682,0-10.611c-2.931-2.93-7.682-2.93-10.611,0c0,0-68.171,68.171-68.213,68.213
	c-0.851,0.851-1.492,1.921-1.854,3.069C34.744,361.63,1.506,470.152,1.506,470.152c-1.018,3.301-1.525,6.537-1.506,9.638
	c0.146,17.592,14.57,32.013,32.145,32.149c0.083,0.001,0.165,0.001,0.247,0.001c3.012,0,6.082-0.488,9.389-1.495
	c0,0,108.428-33.205,108.466-33.216c1.17-0.358,2.279-1.009,3.154-1.883c0,0,344.555-344.556,344.812-344.812
	c18.411-18.411,18.357-49.495,0-67.852c0,0-48.893-48.894-48.954-48.954C440.191,4.664,427.782,0.071,415.345,0.061z M47.738,370.44
	l27.921-4.954c0,0-5.735,32.362-5.751,32.449c-0.896,5.059,3.639,9.595,8.697,8.698l32.452-5.751c0,0-5.735,32.359-5.751,32.452
	c-0.896,5.058,3.652,9.593,8.697,8.697l32.452-5.751l-4.95,27.93l-64.045,19.614l-49.338-49.338L47.738,370.44z M37.398,496.092
	c-1.903,0.579-3.575,0.85-5.129,0.84c-9.44-0.073-17.184-7.818-17.261-17.249c-0.01-1.553,0.273-3.272,0.844-5.124l7.296-23.825
	l38.065,38.065L37.398,496.092z M497.256,96.609c0,8.808-3.43,17.087-9.657,23.314l-32.646,32.646l-19.691-19.691
	c-2.931-2.931-7.682-2.931-10.611,0c-2.93,2.931-2.93,7.682,0,10.611l19.691,19.691l-28.573,28.573l-95.574-95.574l28.573-28.572
	l55.202,55.201c2.93,2.931,7.682,2.931,10.611,0c2.931-2.931,2.931-7.682,0-10.611l-55.203-55.202c0,0,32.58-32.58,32.646-32.646
	c12.621-12.622,34.047-12.581,46.62-0.007l48.954,48.954C493.827,79.522,497.256,87.803,497.256,96.609z"/>
<g>
</g>
<g>
</g>
<g>
</g>
<g>
</g>
<g>
</g>
<g>
</g>
<g>
</g>
<g>
</g>
<g>
</g>
<g>
</g>
<g>
</g>
<g>
</g>
<g>
</g>
<g>
</g>
<g>
</g>
</svg>
