<svg viewBox="0 0 512.0008 512" xmlns="http://www.w3.org/2000/svg"><path d="m188.300781 341.589844c1.921875 0 3.84375-.734375 5.304688-2.199219 2.933593-2.929687 2.933593-7.683594 0-10.613281l-9.703125-9.703125c-2.929688-2.929688-7.679688-2.929688-10.609375 0-2.929688 2.929687-2.929688 7.683593 0 10.613281l9.703125 9.703125c1.464844 1.464844 3.386718 2.199219 5.304687 2.199219zm0 0"/><path d="m295.539062 234.351562c1.921876 0 3.84375-.734374 5.304688-2.199218 2.933594-2.929688 2.933594-7.683594 0-10.613282l-9.703125-9.703124c-2.929687-2.929688-7.679687-2.929688-10.609375 0-2.929688 2.929687-2.929688 7.683593 0 10.613281l9.703125 9.703125c1.464844 1.464844 3.382813 2.199218 5.304687 2.199218zm0 0"/><path d="m228.515625 285.539062c-4.140625-.277343-7.710937 2.847657-7.992187 6.980469-.351563 5.265625 4.378906 8.0625 9.050781 8.0625 8.425781 0 16.648437-3.445312 22.832031-9.628906 6.691406-6.691406 10.175781-15.765625 9.5625-24.898437-.28125-4.136719-3.855469-7.261719-7.992188-6.984376-4.132812.277344-7.261718 3.855469-6.984374 7.988282.324218 4.816406-1.570313 9.65625-5.195313 13.28125-3.628906 3.625-8.46875 5.523437-13.28125 5.199218zm0 0"/><path d="m415.34375 0c-12.371094-.0078125-24.769531 4.515625-33.929688 13.675781l-256.0625 256.0625c-2.933593 2.929688-2.933593 7.683594 0 10.613281 2.929688 2.929688 7.679688 2.929688 10.609376 0l173.621093-173.621093 95.574219 95.574219-245.515625 245.515624s3.453125-19.472656 3.46875-19.554687c.875-4.949219-3.78125-9.570313-8.699219-8.699219l-32.453125 5.753906s5.722657-32.28125 5.753907-32.453124c.863281-4.882813-3.796876-9.570313-8.699219-8.699219l-32.453125 5.753906s5.738281-32.371094 5.753906-32.453125c.894531-5.058594-3.644531-9.59375-8.699219-8.699219l-19.539062 3.46875 51.351562-51.355469c2.933594-2.929687 2.933594-7.679687 0-10.609374-2.929687-2.929688-7.679687-2.929688-10.609375 0 0 0-68.171875 68.171874-68.214844 68.210937-.851562.851563-1.492187 1.921875-1.851562 3.070313-.003906.015624-33.242188 108.535156-33.242188 108.535156-1.019531 3.300781-1.5273432 6.539062-1.507812 9.640625.148438 17.589843 14.570312 32.011719 32.144531 32.148437h.246094c3.011719 0 6.082031-.488281 9.390625-1.496094 0 0 108.425781-33.203124 108.464844-33.214843 1.171875-.359375 2.28125-1.007813 3.15625-1.882813 0 0 344.554687-344.554687 344.808594-344.8125 18.414062-18.410156 18.359374-49.496094 0-67.851562 0 0-48.890626-48.894532-48.953126-48.953125-9.066406-9.066407-21.476562-13.6562502-33.914062-13.667969zm-367.605469 370.378906 27.921875-4.953125s-5.734375 32.363281-5.75 32.449219c-.898437 5.058594 3.636719 9.59375 8.695313 8.699219l32.453125-5.753907s-5.734375 32.359376-5.75 32.453126c-.898438 5.058593 3.648437 9.59375 8.695312 8.699218l32.453125-5.753906-4.949219 27.933594-64.046874 19.613281-49.339844-49.339844zm-10.339843 125.652344c-1.902344.578125-3.574219.851562-5.128907.839844-9.441406-.074219-17.183593-7.816406-17.261719-17.25-.007812-1.550782.273438-3.269532.84375-5.121094l7.296876-23.828125 38.066406 38.066406zm459.859374-399.484375c0 8.808594-3.433593 17.089844-9.660156 23.316406l-32.644531 32.644531-19.691406-19.691406c-2.929688-2.929687-7.683594-2.929687-10.609375 0-2.933594 2.929688-2.933594 7.683594 0 10.613282l19.6875 19.691406-28.570313 28.570312-95.574219-95.574218 28.570313-28.570313 55.203125 55.199219c2.929688 2.933594 7.683594 2.933594 10.613281 0 2.929688-2.929688 2.929688-7.679688 0-10.609375l-55.203125-55.203125s32.578125-32.578125 32.644532-32.644532c12.621093-12.621093 34.046874-12.582031 46.621093-.007812l48.953125 48.953125c6.230469 6.226563 9.660156 14.507813 9.660156 23.3125zm0 0"/></svg>