<svg id="Capa_1" enable-background="new 0 0 512 512" height="512" viewBox="0 0 512 512" width="512" xmlns="http://www.w3.org/2000/svg"><g id="Edit"><g id="Color_82_"><g><path d="m118.792 302.152-8.521 54.742 8.275 36.56 36.56 8.275 54.742-8.521 5.173-37.252-58.977-58.977z" fill="#ffd4bd"/><path d="m109.737 360.329-5.189 33.339c-1.257 8.077 5.708 15.043 13.786 13.785l33.339-5.189 3.434-.535-44.835-44.835z" fill="#5f7080"/><g><path d="m260.008 343.047 159.483-159.482-31.386-59.67-59.67-31.386-126.948 126.948-35.486 62.086 68.44 68.174z" fill="#928cd9"/><path d="m199.4 242.6c0-7.952.721-15.697 2.087-23.143l-82.695 82.695 23.403 6.456c7.604 2.098 12.911 8.288 13.933 16.254l1.612 12.562c1.159 9.036 7.801 15.677 16.836 16.836l12.562 1.612c7.967 1.022 14.157 6.329 16.255 13.933l6.455 23.403 50.161-50.161c-35.085-13.123-60.609-53.13-60.609-100.447z" fill="#827cd2"/></g><g><g><path d="m406.548 28.717 16.029 60.705 60.553 30.502 9.653-9.653c15.621-15.621 15.621-40.948 0-56.569l-34.487-34.487z" fill="#fd7a6e"/><path d="m483.131 119.925-60.03-60.03c-3.843-3.843-3.886-10.026-.162-13.983 10.447-11.098 22.369-20.164 35.358-26.696-15.621-15.621-40.948-15.621-56.569 0l-23.796 23.795 31.386 59.67 59.67 31.386z" fill="#fb695b"/></g></g><g><path d="m379.713 143.787 39.778 39.778c5.858 5.858 15.355 5.858 21.213 0l28.284-28.284c5.858-5.858 5.858-15.355 0-21.213l-64.3-64.301-45.958 10.428z" fill="#ffef64"/><path d="m377.933 43.011c-5.858-5.858-15.355-5.858-21.213 0l-28.284 28.284c-5.858 5.858-5.858 15.355 0 21.213l51.278 51.278c3.027-27.576 11.874-52.889 24.975-74.02z" fill="#ffe54e"/></g></g><g><path d="m250.862 504.5h233.638c11.046 0 20-8.954 20-20v-208.5c0-11.046-8.954-20-20-20s-20 8.954-20 20v178.5c0 5.523-4.477 10-10 10h-210.537l-15.619 20z" fill="#ececf6"/><path d="m243.963 464.5h-186.463c-5.523 0-10-4.477-10-10v-397c0-5.523 4.477-10 10-10h178.5c11.046 0 20-8.954 20-20 0-11.046-8.954-20-20-20h-208.5c-11.046 0-20 8.954-20 20v457c0 11.046 8.954 20 20 20h223.362c-4.837-8.504-7.674-18.846-7.674-30 0-3.419.266-6.763.775-10z" fill="#e2e2f1"/></g></g><g id="Lineal_Expanded_86_"><path d="m498.087 48.399-34.487-34.487c-8.972-8.972-20.9-13.912-33.588-13.912s-24.616 4.94-33.587 13.912l-19.401 19.401c-8.362-3.984-18.694-2.52-25.608 4.394l-28.284 28.284v.001c-6.913 6.914-8.378 17.245-4.394 25.607l-205.25 205.25c-1.115 1.115-1.861 2.565-2.107 4.15l-8.521 54.742-5.724 36.772c-.941 6.043 1.016 12.224 5.272 16.618 4.417 4.56 10.803 6.704 17.077 5.732l36.703-5.713c.023-.003.047-.007.07-.01l54.742-8.521c1.585-.247 3.034-.992 4.15-2.107l205.243-205.242c8.518 4.077 18.951 2.262 25.615-4.402l28.284-28.284c6.664-6.664 8.48-17.097 4.402-25.615l19.393-19.394c18.521-18.52 18.521-48.655 0-67.176zm-380.908 351.642c-3.025.479-5.691-2.201-5.221-5.221l3.452-22.18 23.949 23.948zm40.537-6.309-39.448-39.448 6.641-42.665 15.292 4.218c4.679 1.291 7.852 5.021 8.488 9.98l1.612 12.561c1.586 12.362 10.958 21.734 23.32 23.322l12.562 1.612c4.958.636 8.688 3.809 9.979 8.487l4.218 15.291zm55.936-14.936-3.03-10.985c-2.908-10.544-11.542-17.969-22.53-19.378l-12.562-1.611c-5.659-.728-9.626-4.694-10.352-10.354l-1.612-12.562c-1.41-10.988-8.835-19.622-19.378-22.53l-10.985-3.03 195.231-195.231 80.449 80.448zm250.034-228.819-28.285 28.285c-2.891 2.89-7.716 2.889-10.606-.001l-91.056-91.055c-2.924-2.925-2.924-7.684 0-10.608v.001l28.284-28.284c2.925-2.925 7.683-2.923 10.607 0l91.056 91.057c2.89 2.888 2.89 7.715 0 10.605zm23.795-45.009-18.492 18.493-80.449-80.45 18.491-18.492c12.672-12.672 33.291-12.672 45.962 0l34.487 34.487c12.673 12.672 12.673 33.291.001 45.962z"/><g><path d="m484.5 512h-457c-15.164 0-27.5-12.336-27.5-27.5v-332.5c0-4.143 3.358-7.5 7.5-7.5s7.5 3.357 7.5 7.5v332.5c0 6.893 5.607 12.5 12.5 12.5h457c6.893 0 12.5-5.607 12.5-12.5v-208.5c0-6.893-5.607-12.5-12.5-12.5s-12.5 5.607-12.5 12.5v84c0 4.143-3.358 7.5-7.5 7.5s-7.5-3.357-7.5-7.5v-84c0-15.164 12.336-27.5 27.5-27.5s27.5 12.336 27.5 27.5v208.5c0 15.164-12.336 27.5-27.5 27.5z"/><path d="m454.5 472h-397c-9.649 0-17.5-7.851-17.5-17.5v-397c0-9.649 7.851-17.5 17.5-17.5h178.5c6.893 0 12.5-5.607 12.5-12.5s-5.607-12.5-12.5-12.5h-208.5c-6.893 0-12.5 5.607-12.5 12.5v89.5c0 4.143-3.358 7.5-7.5 7.5s-7.5-3.357-7.5-7.5v-89.5c0-15.163 12.336-27.5 27.5-27.5h208.5c15.164 0 27.5 12.337 27.5 27.5s-12.336 27.5-27.5 27.5h-178.5c-1.378 0-2.5 1.121-2.5 2.5v397c0 1.379 1.122 2.5 2.5 2.5h397c1.378 0 2.5-1.121 2.5-2.5v-59.5c0-4.143 3.358-7.5 7.5-7.5s7.5 3.357 7.5 7.5v59.5c0 9.649-7.851 17.5-17.5 17.5z"/></g><g><g><path d="m231.446 294.594c-2.929 2.929-7.678 2.929-10.607 0l-8.485-8.485c-2.929-2.929-2.929-7.678 0-10.607s7.678-2.929 10.607 0l8.485 8.485c2.929 2.93 2.929 7.679 0 10.607z"/><path d="m319.762 206.279c-2.929 2.929-7.678 2.929-10.607 0l-8.485-8.485c-2.929-2.929-2.929-7.678 0-10.607s7.678-2.929 10.607 0l8.485 8.485c2.929 2.929 2.929 7.678 0 10.607z"/></g><path d="m280.655 255.488c-5.995 5.995-14.291 9.099-22.763 8.517-4.132-.284-7.252-3.864-6.969-7.996.285-4.132 3.864-7.253 7.996-6.969 4.145.285 8.201-1.231 11.129-4.159s4.444-6.984 4.159-11.129c-.284-4.133 2.836-7.712 6.969-7.996 4.133-.283 7.712 2.836 7.996 6.969.583 8.472-2.522 16.768-8.517 22.763z"/></g></g></g></svg>