<svg id="Capa_1" enable-background="new 0 0 512 512" height="512" viewBox="0 0 512 512" width="512" xmlns="http://www.w3.org/2000/svg"><g><g><g><path d="m255.999 209.335c-20.643.001-37.442-18.386-37.454-40.994-.006-11.429 4.324-19.423 12.868-23.762 6.535-3.318 14.548-4.001 24.567-4.006 12.168.001 37.446-.014 37.463 27.729.012 22.614-16.778 41.021-37.428 41.032-.004.001-.011.001-.016.001zm.105-53.762c-.039 0-.077 0-.116 0-6.808.003-13.674.294-17.784 2.381-2.422 1.229-4.662 3.338-4.659 10.379.008 14.339 10.08 26.001 22.454 26.002h.009c12.379-.007 22.443-11.681 22.436-26.024-.006-10.964-5.314-12.738-22.34-12.738z"/></g><g><path d="m321.698 158.952c-.005 0-.009 0-.014 0-4.143-.008-7.494-3.372-7.486-7.514l.022-12c.008-4.138 3.364-7.486 7.5-7.486h.014c4.143.008 7.494 3.372 7.486 7.514l-.022 12c-.008 4.138-3.364 7.486-7.5 7.486z"/></g><g><path d="m210.124 157.854c-.005 0-.011 0-.016 0-4.143-.009-7.493-3.374-7.484-7.516.008-3.619-2.931-6.57-6.549-6.578-.005 0-.01 0-.015 0-3.611 0-6.555 2.935-6.562 6.549-.01 4.137-3.365 7.483-7.5 7.483-.006 0-.011 0-.017 0-4.143-.01-7.493-3.375-7.483-7.517.027-11.873 9.696-21.516 21.562-21.516h.047c11.891.027 21.542 9.721 21.517 21.609-.009 4.138-3.365 7.486-7.5 7.486z"/></g></g><path d="m474.5 28.5h-437c-20.678 0-37.5 16.822-37.5 37.5s16.822 37.5 37.5 37.5h.171l130.829 194.784v72.716c0 4.143 3.357 7.5 7.5 7.5s7.5-3.357 7.5-7.5v-67.5h145v73.52c0 7.545-3.705 14.611-9.91 18.903l-99.03 68.496c-3.86 2.67-8.381 4.081-13.075 4.081-12.674 0-22.984-10.311-22.984-22.984v-44.516c0-4.143-3.357-7.5-7.5-7.5s-7.5 3.357-7.5 7.5v44.516c0 20.944 17.04 37.984 37.984 37.984 7.757 0 15.229-2.332 21.608-6.745l99.03-68.496c10.255-7.093 16.377-18.771 16.377-31.239v-78.735l130.828-194.785h.172c20.678 0 37.5-16.822 37.5-37.5s-16.822-37.5-37.5-37.5zm0 60h-90.143c-4.143 0-7.5 3.357-7.5 7.5s3.357 7.5 7.5 7.5h71.902l-124.256 185h-152.006l-124.257-185h298.618c4.143 0 7.5-3.357 7.5-7.5s-3.357-7.5-7.5-7.5h-316.858c-12.406 0-22.5-10.094-22.5-22.5s10.094-22.5 22.5-22.5h437c12.406 0 22.5 10.094 22.5 22.5s-10.094 22.5-22.5 22.5z"/></g></svg>