<svg id="Capa_1" enable-background="new 0 0 512 512" height="512" viewBox="0 0 512 512" width="512" xmlns="http://www.w3.org/2000/svg"><g><path d="m299.152 406.749c-4.085 0-7.396 3.311-7.396 7.396s3.311 7.396 7.396 7.396 7.396-3.311 7.396-7.396c-.001-4.084-3.312-7.396-7.396-7.396zm29.428-147.068v-12.506c0-4.142-3.358-7.5-7.5-7.5s-7.5 3.358-7.5 7.5v12.506c0 4.142 3.358 7.5 7.5 7.5s7.5-3.358 7.5-7.5zm-72.58 14.945c8.743 0 17.058-3.787 22.812-10.389 2.722-3.123 2.396-7.86-.726-10.582s-7.86-2.397-10.582.726c-2.905 3.333-7.098 5.244-11.504 5.244-4.407 0-8.6-1.911-11.504-5.244-2.722-3.122-7.459-3.447-10.582-.727-3.123 2.722-3.448 7.459-.727 10.582 5.754 6.603 14.069 10.39 22.813 10.39zm239.253-54.586-21.952-21.952c-2.929-2.929-7.678-2.929-10.606 0-2.929 2.929-2.929 7.678 0 10.606l21.952 21.952c7.966 7.966 12.353 18.558 12.353 29.823v28.288c0 17.387-21.039 26.108-33.34 13.81l-4.067-4.067c-.001-.001-.002-.002-.003-.002l-174.697-174.699c-15.969-15.969-41.815-15.97-57.785 0l-178.768 178.768c-12.295 12.293-33.34 3.584-33.34-13.81v-28.288c0-11.266 4.387-21.857 12.353-29.823l167.475-167.474c33.73-33.73 88.614-33.73 122.345 0l119.946 119.946c2.929 2.929 7.678 2.929 10.606 0 2.929-2.929 2.929-7.678 0-10.606l-119.946-119.947c-39.67-39.67-103.882-39.675-143.558 0l-36.211 36.212v-34.226c0-17.489-14.229-31.717-31.718-31.717h-34.363c-17.489 0-31.718 14.229-31.718 31.717v132.024l-33.464 33.465c-10.8 10.799-16.747 25.157-16.747 40.429v28.288c0 26.936 28.453 42.11 50.211 30.822v117.299c0 23.028 14.76 43.101 36.728 49.948 3.945 1.231 8.157-.966 9.392-4.928 1.233-3.955-.974-8.16-4.928-9.392-15.666-4.883-26.191-19.201-26.191-35.628v-15.233h47.787c13.174 0 23.893-10.718 23.893-23.893v-44.698c0-13.174-10.718-23.893-23.893-23.893h-47.788v-22.253l172.503-172.502c10.106-10.106 26.465-10.107 36.572 0l172.503 172.502v22.253h-47.787c-13.175 0-23.893 10.718-23.893 23.893v44.698c0 13.175 10.718 23.893 23.893 23.893h47.787v15.233c0 20.573-16.738 37.311-37.311 37.311h-70.465v-120.373c0-21.732-17.68-39.412-39.412-39.412h-87.202c-21.731 0-39.412 17.68-39.412 39.412v120.374h-48.097c-4.142 0-7.5 3.358-7.5 7.5s3.358 7.5 7.5 7.5h284.588c28.844 0 52.311-23.467 52.311-52.311v-117.293c22.017 11.422 50.211-4.139 50.211-30.829v-28.288c0-15.272-5.947-29.63-16.747-40.429zm-430.042-165.489c0-9.218 7.499-16.717 16.718-16.717h34.363c9.218 0 16.718 7.5 16.718 16.717v49.225l-67.798 67.798v-117.023zm47.787 289.61c4.903 0 8.893 3.989 8.893 8.893v44.698c0 4.904-3.989 8.893-8.893 8.893h-47.787v-62.484zm211.015 130.029h-136.026v-120.374c0-13.461 10.951-24.412 24.412-24.412h87.202c13.46 0 24.412 10.951 24.412 24.412zm122.776-67.545h-47.787c-4.904 0-8.893-3.989-8.893-8.893v-44.698c0-4.903 3.989-8.893 8.893-8.893h47.787zm-255.869-139.464c4.142 0 7.5-3.358 7.5-7.5v-12.506c0-4.142-3.358-7.5-7.5-7.5s-7.5 3.358-7.5 7.5v12.506c0 4.142 3.358 7.5 7.5 7.5z"/></g></svg>