<svg id="Capa_1" enable-background="new 0 0 512 512" height="512" viewBox="0 0 512 512" width="512" xmlns="http://www.w3.org/2000/svg"><circle cx="256" cy="256" fill="#50e2ce" r="248.5"/><circle cx="256" cy="256" fill="#4487da" r="198.5"/><path d="m87.5 256c0-104.407 81.027-190.244 183.5-197.937-4.952-.372-9.954-.563-15-.563-109.453 0-198.5 89.047-198.5 198.5 0 109.452 89.047 198.499 198.5 198.499 5.046 0 10.048-.192 15-.563-102.473-7.693-183.5-93.529-183.5-197.936z" fill="#006ad0"/><g fill="#fff"><path d="m358.246 243.5h-204.492c-7.287 0-13.194 5.907-13.194 13.194v18.612c0 7.287 5.907 13.194 13.194 13.194h204.491c7.287 0 13.194-5.907 13.194-13.194v-18.612c0-7.287-5.907-13.194-13.193-13.194z"/><path d="m358.246 159.149h-204.492c-7.287 0-13.194 5.907-13.194 13.194v18.612c0 7.287 5.907 13.194 13.194 13.194h204.491c7.287 0 13.194-5.907 13.194-13.194v-18.612c0-7.287-5.907-13.194-13.193-13.194z"/><path d="m358.246 372.852h-204.492c-7.287 0-13.194-5.907-13.194-13.194v-18.612c0-7.287 5.907-13.194 13.194-13.194h204.491c7.287 0 13.194 5.907 13.194 13.194v18.612c0 7.287-5.907 13.194-13.193 13.194z"/></g><path d="m256 0c-51.987 0-102.045 15.51-144.764 44.852-3.414 2.345-4.281 7.014-1.936 10.429 2.345 3.414 7.013 4.281 10.429 1.936 40.208-27.619 87.33-42.217 136.271-42.217 64.374 0 124.894 25.068 170.413 70.587s70.587 106.039 70.587 170.413-25.068 124.894-70.587 170.413-106.039 70.587-170.413 70.587-124.894-25.068-170.413-70.587-70.587-106.039-70.587-170.413c0-69.096 29.747-134.976 81.613-180.749 3.105-2.741 3.401-7.48.661-10.586-2.742-3.105-7.48-3.401-10.586-.66-55.092 48.619-86.688 118.598-86.688 191.995 0 68.38 26.628 132.667 74.98 181.02 48.353 48.351 112.64 74.98 181.02 74.98s132.667-26.629 181.02-74.98c48.351-48.353 74.98-112.64 74.98-181.02s-26.629-132.667-74.98-181.02c-48.353-48.351-112.64-74.98-181.02-74.98z"/><path d="m425.396 359.629c3.609 2.032 8.183.754 10.215-2.854 17.264-30.653 26.389-65.5 26.389-100.775 0-113.589-92.411-206-206-206s-206 92.411-206 206c0 113.588 92.411 206 206 206 63.515 0 122.55-28.737 161.969-78.844 2.561-3.255 1.998-7.971-1.257-10.532s-7.971-1.999-10.532 1.257c-36.556 46.468-91.295 73.119-150.18 73.119-105.318 0-191-85.682-191-191s85.682-191 191-191 191 85.682 191 191c0 32.702-8.458 65.003-24.458 93.413-2.033 3.609-.755 8.183 2.854 10.216z"/><path d="m378.939 256.694c0-11.411-9.283-20.694-20.694-20.694h-204.491c-11.411 0-20.694 9.283-20.694 20.694v18.612c0 11.411 9.283 20.694 20.694 20.694h204.491c11.411 0 20.694-9.283 20.694-20.694zm-15 18.612c0 3.14-2.554 5.694-5.694 5.694h-204.491c-3.14 0-5.694-2.554-5.694-5.694v-18.612c0-3.14 2.554-5.694 5.694-5.694h204.491c3.14 0 5.694 2.555 5.694 5.694z"/><path d="m378.939 172.343c0-11.411-9.283-20.694-20.694-20.694h-204.491c-11.411 0-20.694 9.284-20.694 20.694v18.612c0 11.411 9.283 20.694 20.694 20.694h204.491c11.411 0 20.694-9.283 20.694-20.694zm-15 18.612c0 3.14-2.554 5.694-5.694 5.694h-204.491c-3.14 0-5.694-2.554-5.694-5.694v-18.612c0-3.14 2.554-5.694 5.694-5.694h204.491c3.14 0 5.694 2.555 5.694 5.694z"/><path d="m358.246 320.352h-204.492c-11.411 0-20.694 9.283-20.694 20.694v18.612c0 11.411 9.283 20.694 20.694 20.694h204.491c11.411 0 20.694-9.283 20.694-20.694v-18.612c0-11.411-9.283-20.694-20.693-20.694zm5.693 39.306c0 3.14-2.554 5.694-5.694 5.694h-204.491c-3.14 0-5.694-2.554-5.694-5.694v-18.612c0-3.14 2.554-5.694 5.694-5.694h204.491c3.14 0 5.694 2.555 5.694 5.694z"/><path d="m192.458 117.69v-13.651c0-4.142-3.358-7.5-7.5-7.5s-7.5 3.358-7.5 7.5v13.651c0 4.142 3.358 7.5 7.5 7.5s7.5-3.357 7.5-7.5z"/><path d="m334.542 117.69v-13.651c0-4.142-3.358-7.5-7.5-7.5s-7.5 3.358-7.5 7.5v13.651c0 4.142 3.358 7.5 7.5 7.5s7.5-3.357 7.5-7.5z"/><path d="m256 133.317c9.346 0 18.234-4.048 24.384-11.105 2.721-3.123 2.396-7.86-.727-10.582-3.123-2.721-7.86-2.396-10.582.727-3.301 3.788-8.066 5.96-13.075 5.96s-9.774-2.172-13.075-5.96c-2.721-3.123-7.459-3.448-10.582-.727s-3.448 7.459-.727 10.582c6.15 7.057 15.038 11.105 24.384 11.105z"/></svg>