<?xml version="1.0" encoding="UTF-8" standalone="no"?>
<!-- Created with Inkscape (http://www.inkscape.org/) -->

<svg
   version="1.1"
   id="svg255"
   xml:space="preserve"
   width="682.66669"
   height="682.66669"
   viewBox="0 0 682.66669 682.66669"
   xmlns="http://www.w3.org/2000/svg"
   xmlns:svg="http://www.w3.org/2000/svg"><defs
     id="defs259"><clipPath
       clipPathUnits="userSpaceOnUse"
       id="clipPath269"><path
         d="M 0,512 H 512 V 0 H 0 Z"
         id="path267" /></clipPath></defs><g
     id="g261"
     transform="matrix(1.3333333,0,0,-1.3333333,0,682.66667)"><g
       id="g263"><g
         id="g265"
         clip-path="url(#clipPath269)"><g
           id="g271"
           transform="translate(424.6567,438.5039)"><path
             d="m 0,0 c 49.1,-45.397 79.843,-110.36 79.843,-182.504 0,-137.243 -111.257,-248.5 -248.5,-248.5 -137.242,0 -248.5,111.257 -248.5,248.5 0,137.243 111.258,248.5 248.5,248.5 53.97,0 103.921,-17.204 144.669,-46.429"
             style="fill:none;stroke:#000000;stroke-width:15;stroke-linecap:round;stroke-linejoin:round;stroke-miterlimit:10;stroke-dasharray:none;stroke-opacity:1"
             id="path273" /></g><g
           id="g275"
           transform="translate(166.5942,219.0259)"><path
             d="m 0,0 h -23.236 c -20.42,0 -36.974,16.554 -36.974,36.974 0,20.421 16.554,36.974 36.974,36.974 h 225.284 c 20.42,0 36.973,-16.553 36.973,-36.974 C 239.021,16.554 222.468,0 202.048,0 H 33.188"
             style="fill:none;stroke:#000000;stroke-width:15;stroke-linecap:round;stroke-linejoin:round;stroke-miterlimit:10;stroke-dasharray:none;stroke-opacity:1"
             id="path277" /></g></g></g></g></svg>
