<svg id="Layer_1" enable-background="new 0 0 511.917 511.917" viewBox="0 0 511.917 511.917" xmlns="http://www.w3.org/2000/svg"><g><g><path d="m123.693 320.459h60.235v75.294h-60.235z" fill="#bed6f1" transform="matrix(.707 .707 -.707 .707 298.269 -3.874)"/><path d="m169.827 405.98-42.64 42.64-23.26 10.56-8.68 21.38-10.65 10.65c-10.24 10.24-24.17 14.54-37.52 12.89-9.64-1.19-18.97-5.49-26.37-12.89-17.64-17.64-17.64-46.25 0-63.89l10.65-10.65 23.21-5.66 8.73-26.28 42.64-42.64c5.86-5.86 15.35-5.86 21.21 0l.04.04-2.5 15.05 27.07 9.52 18.07 18.07c5.86 5.86 5.86 15.35 0 21.21z" fill="#687daa"/><path d="m151.757 366.7c-5.06-.46-11.96.61-18.58 7.23l-77.44 77.44c-13.52 13.53-17.69 32.89-8.66 52.73-9.64-1.19-18.97-5.49-26.37-12.89-17.64-17.64-17.64-46.25 0-63.89l10.65-10.65 23.21-5.66 8.73-26.28 42.64-42.64c5.86-5.86 15.35-5.86 21.21 0z" fill="#4a66a0"/><path d="m127.187 448.62-31.94 31.94-34.35-34.35 3.2-19.88 28.74-12.06z" fill="#bed6f1"/><path d="m39.512 394.582h45.17v41.776h-45.17z" fill="#93bce8" transform="matrix(.707 -.707 .707 .707 -275.595 165.6)"/><path d="m249.647 326.16-26.71 26.71c-11.71 11.71-30.71 11.71-42.42 0l-10.65-10.65-6.11-18.49-12.45-5.71c-2.71-10.03-.12-21.18 7.74-29.04l26.71-26.71 25.03 25.03z" fill="#687daa"/><path d="m177.547 320.54s-8.75 9.77-7.68 21.68l-10.82-10.82c-11.71-11.71-11.71-30.71 0-42.42l26.71-26.71 25.03 25.03z" fill="#4a66a0"/><path d="m504.417 188.21c0 97.45-77.14 176.88-173.69 180.57-2.33.09-4.67.13-7.02.13-33.51 0-64.89-9.12-91.79-25.02l-31.96-59.09-31.93-4.8c-15.9-26.9-25.02-58.28-25.02-91.79 0-97.71 77.53-177.3 174.43-180.6 2.08-.07 4.17-.11 6.27-.11 99.81 0 180.71 80.9 180.71 180.71z" fill="#bed6f1"/><path d="m330.727 368.78c-2.33.09-4.67.13-7.02.13-99.8 0-180.7-80.9-180.7-180.7 0-97.71 77.53-177.3 174.43-180.6-29.06 37.12-142.63 203.34 13.29 361.17z" fill="#93bce8"/><path d="m459.237 188.21c0 74.85-60.67 135.52-135.53 135.52-11.43 0-22.53-1.41-33.13-4.08l-62.23-53.49 11.03-162.38 45.52-45.46c12.29-3.67 25.32-5.64 38.81-5.64 74.86 0 135.53 60.67 135.53 135.53z" fill="#f3f5fc"/><path d="m290.577 319.65c-58.83-14.78-102.39-68.02-102.39-131.44 0-61.37 40.77-113.2 96.71-129.89-31.64 60.25-61.21 159.58 5.68 261.33z" fill="#e8ecf9"/><g><g fill="#ffa1ac"><ellipse cx="245.335" cy="210.352" rx="28.919" ry="23.03"/><ellipse cx="402.088" cy="210.352" rx="28.92" ry="23.03"/></g></g></g><g><path d="m323.707 0c-103.774 0-188.2 84.431-188.2 188.21 0 32.775 8.429 63.616 23.222 90.48l-4.985 4.985c-8.676 8.676-12.203 20.581-10.581 31.882l-16.869 16.877c-8.48-4.092-18.758-2.55-25.659 4.351l-4.33 4.33c-2.929 2.93-2.929 7.678 0 10.607 2.929 2.928 7.678 2.928 10.606 0l4.331-4.331c2.935-2.934 7.669-2.933 10.603.001l42.68 42.68c2.933 2.932 2.933 7.671 0 10.603l-37.333 37.333-53.283-53.283 8.253-8.252c2.929-2.93 2.929-7.678 0-10.607-2.929-2.928-7.678-2.928-10.606 0l-56.15 56.15c-20.538 20.538-20.538 53.958 0 74.497 20.54 20.538 53.957 20.538 74.497 0l85.229-85.23c6.897-6.894 8.443-17.168 4.357-25.648l16.873-16.88c11.376 1.63 23.255-1.955 31.881-10.581l4.986-4.986c54.613 30.072 120.862 31.011 176.334 2.554 3.686-1.891 5.141-6.41 3.25-10.096-1.891-3.687-6.412-5.143-10.097-3.25-24.595 12.616-51.177 19.014-79.007 19.014-95.502 0-173.2-77.697-173.2-173.2 0-95.509 77.697-173.21 173.2-173.21 95.509 0 173.21 77.701 173.21 173.21 0 53.365-24.055 102.951-65.996 136.042-3.252 2.565-3.808 7.281-1.243 10.533 2.567 3.252 7.282 3.81 10.534 1.242 45.569-35.953 71.705-89.83 71.705-147.817-.002-103.779-84.432-188.21-188.212-188.21zm-207.123 448.616-21.338 21.338-53.283-53.283 21.338-21.337zm-90.574 37.291c-14.689-14.691-14.689-38.594 0-53.284l5.346-5.346 53.283 53.283-5.345 5.346c-14.691 14.692-38.594 14.69-53.284.001zm143.776-111.785-31.983-31.983 11.211-11.216c1.357 2.043 2.067 3.019 5.193 6.237l21.007 21.015c1.8 1.8 3.74 3.376 5.783 4.732zm50.228-28.936-2.38 2.38c-8.771 8.772-23.042 8.771-31.814.001l-21.47-21.472c-8.771-8.771-8.771-23.042 0-31.812l2.381-2.381c14.004 21.13 32.154 39.28 53.283 53.284z"/><path d="m199.914 132.452c-3.862-1.489-8.206.436-9.695 4.302-6.324 16.413-9.531 33.726-9.531 51.456 0 78.861 64.158 143.02 143.02 143.02 78.867 0 143.03-64.158 143.03-143.02 0-78.867-64.163-143.03-143.03-143.03-45.67 0-88.975 22.1-115.839 59.115-2.433 3.353-1.688 8.042 1.665 10.476 3.353 2.431 8.042 1.687 10.475-1.665 24.052-33.141 62.818-52.926 103.7-52.926 70.596 0 128.03 57.435 128.03 128.03 0 70.59-57.434 128.02-128.03 128.02-70.59 0-128.02-57.43-128.02-128.02 0-15.88 2.869-31.377 8.528-46.063 1.488-3.865-.438-8.205-4.303-9.695z"/><path d="m255.924 185.291c0-3.455 2.811-6.266 6.265-6.266s6.265 2.811 6.265 6.266c0 4.143 3.358 7.5 7.5 7.5s7.5-3.357 7.5-7.5c0-11.726-9.54-21.266-21.265-21.266s-21.265 9.54-21.265 21.266c0 4.143 3.358 7.5 7.5 7.5s7.5-3.357 7.5-7.5z"/><path d="m378.969 185.291c0-3.455 2.811-6.266 6.265-6.266s6.265 2.811 6.265 6.266c0 4.143 3.358 7.5 7.5 7.5s7.5-3.357 7.5-7.5c0-11.726-9.54-21.266-21.265-21.266s-21.265 9.54-21.265 21.266c0 4.143 3.358 7.5 7.5 7.5s7.5-3.357 7.5-7.5z"/><path d="m343.967 206.307c2.721-3.123 2.396-7.86-.727-10.582-3.123-2.721-7.86-2.396-10.582.727-4.745 5.445-13.149 5.445-17.894 0-2.722-3.122-7.459-3.447-10.582-.727-3.123 2.722-3.448 7.459-.727 10.582 10.714 12.292 29.799 12.292 40.512 0z"/></g></g><g/><g/><g/><g/><g/><g/><g/><g/><g/><g/><g/><g/><g/><g/><g/></svg>