<svg id="Capa_1" enable-background="new 0 0 511.966 511.966" height="512" viewBox="0 0 511.966 511.966" width="512" xmlns="http://www.w3.org/2000/svg"><g><path d="m474.11 282.38c2.052-16.837 2.124-33.905.216-50.838l29.392-29.982c7.543-7.693 10.156-18.781 6.821-28.936-3.97-12.105-8.839-24.023-14.473-35.423-4.792-9.691-14.467-15.839-25.251-16.043l-41.971-.783c-10.492-13.398-22.505-25.521-35.784-36.111l-.404-41.942c-.109-10.798-6.175-20.53-15.832-25.399-11.296-5.694-23.082-10.638-35.04-14.695-10.244-3.467-21.438-.97-29.205 6.514l-30.204 29.118c-16.806-2.055-33.879-2.128-50.829-.221l-29.985-29.394c-7.691-7.542-18.78-10.152-28.935-6.82-12.103 3.969-24.021 8.838-35.424 14.473-9.691 4.792-15.839 14.467-16.043 25.251l-.782 41.971c-13.396 10.49-25.52 22.503-36.112 35.784l-41.952.404c-10.791.11-20.52 6.177-25.39 15.833-5.697 11.303-10.641 23.089-14.694 35.038-3.467 10.246-.971 21.437 6.514 29.206l29.112 30.199c-2.052 16.842-2.124 33.907-.215 50.838l-29.393 29.982c-7.542 7.692-10.155 18.781-6.82 28.936 3.972 12.11 8.841 24.028 14.471 35.422 4.792 9.691 14.467 15.839 25.252 16.043l41.97.782c10.491 13.397 22.504 25.52 35.785 36.112l.404 41.941c.109 10.798 6.176 20.53 15.833 25.4 11.303 5.697 23.089 10.641 35.038 14.695 10.247 3.466 21.438.969 29.205-6.515l30.199-29.112c16.876 2.055 33.969 2.124 50.837.217l29.982 29.394c7.678 7.529 18.767 10.161 28.936 6.82 12.11-3.972 24.028-8.841 35.422-14.472 9.691-4.792 15.839-14.468 16.043-25.252l.783-41.97c13.395-10.489 25.518-22.503 36.111-35.784l41.952-.405c10.792-.109 20.521-6.176 25.39-15.833 5.694-11.295 10.638-23.081 14.695-35.039 3.466-10.248.971-21.438-6.514-29.205zm21.42 54.591c-3.831 11.291-8.502 22.428-13.883 33.1-2.333 4.628-6.986 7.534-12.143 7.586l-45.555.44c-2.301.022-4.465 1.1-5.869 2.923-11.049 14.341-23.984 27.159-38.448 38.1-1.835 1.388-2.932 3.541-2.975 5.842l-.851 45.572c-.098 5.157-3.046 9.789-7.691 12.087-10.758 5.315-22.013 9.914-33.453 13.666-4.815 1.58-10.085.323-13.758-3.279l-32.556-31.917c-1.41-1.382-3.299-2.145-5.25-2.145-2.245 0-24.663 4.055-55.092-.169-2.279-.317-4.579.431-6.236 2.029l-32.795 31.613c-3.715 3.579-9.074 4.771-13.982 3.108-11.283-3.828-22.42-8.499-33.099-13.882-4.628-2.334-7.534-6.992-7.586-12.154l-.439-45.544c-.023-2.302-1.1-4.465-2.923-5.869-14.341-11.047-27.159-23.982-38.102-38.449-1.388-1.835-3.541-2.932-5.842-2.975l-45.572-.85c-5.157-.098-9.788-3.045-12.086-7.691-5.315-10.758-9.914-22.013-13.666-33.453-1.58-4.811-.323-10.082 3.279-13.758l31.916-32.556c1.61-1.643 2.378-3.934 2.082-6.215-2.336-18.015-2.259-36.225.23-54.125.317-2.281-.431-4.581-2.029-6.238l-31.614-32.794c-3.578-3.715-4.769-9.076-3.107-13.985 3.828-11.282 8.498-22.419 13.881-33.098 2.334-4.627 6.989-7.534 12.145-7.586l45.554-.439c2.301-.022 4.465-1.1 5.869-2.923 11.047-14.34 23.983-27.159 38.449-38.101 1.835-1.388 2.932-3.541 2.975-5.842l.85-45.573c.098-5.156 3.046-9.788 7.691-12.086 10.767-5.32 22.021-9.918 33.455-13.667 4.813-1.579 10.081-.322 13.757 3.279l32.557 31.916c1.641 1.61 3.928 2.382 6.212 2.082 18.123-2.344 36.042-2.242 54.147.235 2.272.308 4.565-.438 6.216-2.032l32.794-31.615c3.715-3.577 9.074-4.77 13.984-3.107 11.29 3.831 22.427 8.502 33.1 13.883 4.627 2.332 7.533 6.99 7.585 12.152l.439 45.545c.022 2.302 1.1 4.465 2.923 5.869 14.338 11.045 27.156 23.98 38.101 38.448 1.388 1.835 3.541 2.932 5.842 2.975l45.573.851c5.156.098 9.788 3.046 12.086 7.691 5.318 10.764 9.916 22.018 13.667 33.454 1.58 4.811.323 10.081-3.28 13.757l-31.915 32.557c-1.61 1.643-2.378 3.933-2.082 6.214 2.336 18.02 2.258 36.231-.231 54.126-.317 2.281.431 4.581 2.029 6.238l31.615 32.795c3.577 3.715 4.767 9.075 3.107 13.984z"/><path d="m339.12 121.495c-3.518-2.18-8.144-1.096-10.325 2.427-2.181 3.521-1.095 8.144 2.427 10.325 42.486 26.318 67.852 71.826 67.852 121.735 0 61.249-38.924 115.686-96.853 135.456-40.788 13.898-85.119 8.864-121.628-13.813-3.516-2.187-8.143-1.107-10.328 2.414-2.186 3.519-1.105 8.143 2.414 10.328 25.349 15.745 54.101 23.793 83.156 23.793 87.038 0 158.239-70.479 158.239-158.178-.001-56.26-29.539-106.355-74.954-134.487z"/><path d="m112.894 255.983c0-78.9 64.189-143.09 143.089-143.09 15.279 0 30.313 2.41 44.687 7.163 1.749.579 2.627.869 3.969.869 4.143 0 7.5-3.357 7.5-7.5 0-3.599-2.534-6.604-5.915-7.332-.212-.067-.494-.162-.844-.278-15.895-5.257-32.514-7.922-49.396-7.922-87.171 0-158.089 70.919-158.089 158.09 0 42.743 16.789 82.785 47.275 112.751 1.461 1.436 3.359 2.151 5.258 2.151 6.675 0 10.037-8.152 5.258-12.849-27.596-27.122-42.792-63.365-42.792-102.053z"/><path d="m255.963 225.574c-12.155.007-37.449.02-37.435 27.768.01 22.202 16.344 40.994 37.45 40.994 20.29 0 37.461-17.901 37.448-41.032-.013-27.343-24.574-27.729-36.923-27.729-.182-.001-.363-.001-.54-.001zm22.464 27.737c.008 13.865-9.669 26.018-22.436 26.024-12.774.006-22.456-12.144-22.462-26.002-.005-9.721 3.09-12.749 22.442-12.76h.116c17.027.001 22.335 1.774 22.34 12.738z"/><path d="m176.429 245.385c4.143 0 7.502-3.36 7.5-7.504-.002-3.892 3.147-7.044 7.039-7.046 3.883-.002 7.045 3.157 7.047 7.04.003 4.141 3.359 7.495 7.5 7.495 4.144 0 7.503-3.361 7.5-7.505-.008-12.15-9.895-22.03-22.044-22.03-12.184 0-22.048 9.869-22.042 22.054.002 4.141 3.359 7.496 7.5 7.496z"/><path d="m298.925 237.824c.002 4.141 3.359 7.496 7.5 7.496 4.143 0 7.502-3.36 7.5-7.504-.002-3.883 3.155-7.044 7.039-7.046 3.883-.002 7.044 3.156 7.046 7.039.002 4.141 3.359 7.496 7.5 7.496 4.144 0 7.502-3.36 7.5-7.504-.006-12.151-9.893-22.031-22.043-22.031-12.184 0-22.048 9.87-22.042 22.054z"/></g></svg>