<?xml version="1.0" encoding="UTF-8" standalone="no"?>
<!-- Created with Inkscape (http://www.inkscape.org/) -->

<svg
   version="1.1"
   id="svg4656"
   xml:space="preserve"
   width="682.66669"
   height="682.66669"
   viewBox="0 0 682.66669 682.66669"
   xmlns="http://www.w3.org/2000/svg"
   xmlns:svg="http://www.w3.org/2000/svg"><defs
     id="defs4660"><clipPath
       clipPathUnits="userSpaceOnUse"
       id="clipPath4670"><path
         d="M 0,512 H 512 V 0 H 0 Z"
         id="path4668" /></clipPath></defs><g
     id="g4662"
     transform="matrix(1.3333333,0,0,-1.3333333,0,682.66667)"><g
       id="g4664"><g
         id="g4666"
         clip-path="url(#clipPath4670)"><g
           id="g4672"
           transform="translate(329.3544,389.526)"><path
             d="m 0,0 c -8.523,0 -16.436,5.458 -19.163,14.012 l -15.238,47.79 c -0.137,0.429 -0.26,0.863 -0.368,1.3 -1.687,6.85 -7.792,11.634 -14.846,11.634 h -47.478 c -7.054,0 -13.16,-4.784 -14.846,-11.633 -0.109,-0.438 -0.231,-0.872 -0.368,-1.301 l -15.239,-47.79 c -3.376,-10.586 -14.693,-16.433 -25.28,-13.056 -10.586,3.376 -16.432,14.694 -13.056,25.281 l 15.057,47.215 c 6.375,24.487 28.363,41.522 53.732,41.522 h 47.478 c 25.367,0 47.356,-17.036 53.732,-41.522 L 19.173,26.236 C 22.548,15.65 16.703,4.332 6.117,0.956 4.085,0.308 2.025,0 0,0"
             style="fill:#bebebf;fill-opacity:1;fill-rule:nonzero;stroke:none"
             id="path4674" /></g><g
           id="g4676"
           transform="translate(39.8858,300.5644)"><path
             d="m 0,0 c -7.032,0 -12.017,-6.862 -9.843,-13.549 l 6.35,-19.538 c 1.386,-4.264 5.359,-7.151 9.843,-7.151 H 70.253 V 0 Z"
             style="fill:#dfdfe0;fill-opacity:1;fill-rule:nonzero;stroke:none"
             id="path4678" /></g><g
           id="g4680"
           transform="translate(472.114,300.5644)"><path
             d="m 0,0 c 7.032,0 12.017,-6.862 9.843,-13.549 l -6.35,-19.538 c -1.386,-4.264 -5.359,-7.151 -9.843,-7.151 H -70.253 V 0 Z"
             style="fill:#dfdfe0;fill-opacity:1;fill-rule:nonzero;stroke:none"
             id="path4682" /></g><g
           id="g4684"
           transform="translate(255.9999,389.9798)"><path
             d="m 0,0 -182.247,-39.454 38.407,-310.827 c 2.889,-18.534 18.85,-32.199 37.607,-32.199 h 212.466 c 18.757,0 34.718,13.665 37.607,32.199 l 38.407,310.827 z"
             style="fill:#bebebf;fill-opacity:1;fill-rule:nonzero;stroke:none"
             id="path4686" /></g><g
           id="g4688"
           transform="translate(255.9999,300.5644)"><path
             d="m 0,0 c -12.838,0 -23.244,-10.407 -23.244,-23.244 v -181.525 c 0,-12.838 10.406,-23.244 23.244,-23.244 12.838,0 23.244,10.406 23.244,23.244 V -23.244 C 23.244,-10.407 12.838,0 0,0"
             style="fill:#dfdfe0;fill-opacity:1;fill-rule:nonzero;stroke:none"
             id="path4690" /></g><g
           id="g4692"
           transform="translate(167.5848,300.5644)"><path
             d="m 0,0 c -12.838,0 -23.244,-10.407 -23.244,-23.244 v -181.525 c 0,-12.838 10.406,-23.244 23.244,-23.244 12.838,0 23.244,10.406 23.244,23.244 V -23.244 C 23.244,-10.407 12.838,0 0,0"
             style="fill:#dfdfe0;fill-opacity:1;fill-rule:nonzero;stroke:none"
             id="path4694" /></g><g
           id="g4696"
           transform="translate(344.415,300.5644)"><path
             d="m 0,0 c 12.838,0 23.244,-10.407 23.244,-23.244 v -181.525 c 0,-12.838 -10.406,-23.244 -23.244,-23.244 -12.838,0 -23.244,10.406 -23.244,23.244 V -23.244 C -23.244,-10.407 -12.838,0 0,0"
             style="fill:#dfdfe0;fill-opacity:1;fill-rule:nonzero;stroke:none"
             id="path4698" /></g><g
           id="g4700"
           transform="translate(73.7528,350.5261)"><path
             d="m 0,0 3.707,-30 h 357.08 l 3.707,30 -182.247,39.454 z"
             style="fill:#b2b2b3;fill-opacity:1;fill-rule:nonzero;stroke:none"
             id="path4702" /></g><g
           id="g4704"
           transform="translate(176.5285,390.4824)"><path
             d="m 0,0 c 10.587,-3.377 21.904,2.469 25.28,13.056 l 15.239,47.789 c 0.137,0.43 0.259,0.863 0.367,1.301 0.646,2.624 1.945,4.94 3.693,6.805 H 0.87 L -13.056,25.28 C -16.432,14.694 -10.586,3.375 0,0"
             style="fill:#b2b2b3;fill-opacity:1;fill-rule:nonzero;stroke:none"
             id="path4706" /></g><g
           id="g4708"
           transform="translate(294.5856,452.6282)"><path
             d="m 0,0 c 0.108,-0.438 0.231,-0.871 0.367,-1.3 l 15.239,-47.79 c 2.727,-8.554 10.64,-14.012 19.163,-14.012 2.025,0 4.085,0.308 6.117,0.956 10.586,3.375 16.431,14.694 13.056,25.28 L 40.016,6.805 H -3.692 C -1.945,4.941 -0.646,2.624 0,0"
             style="fill:#b2b2b3;fill-opacity:1;fill-rule:nonzero;stroke:none"
             id="path4710" /></g><g
           id="g4712"
           transform="translate(454.0234,370.8297)"><path
             d="m 0,0 -4.531,17.771 c -6.125,24.022 -27.759,40.833 -52.55,40.833 h -281.885 c -24.79,0 -46.425,-16.811 -52.55,-40.833 L -396.047,0 c -2.625,-10.294 5.153,-20.304 15.776,-20.304 H -15.776 C -5.153,-20.304 2.625,-10.294 0,0"
             style="fill:#dfdfe0;fill-opacity:1;fill-rule:nonzero;stroke:none"
             id="path4714" /></g><g
           id="g4716"
           transform="translate(256,300.5644)"><path
             d="m 0,0 c -12.838,0 -23.244,-10.407 -23.244,-23.244 v -181.525 c 0,-12.838 10.406,-23.244 23.244,-23.244 12.838,0 23.244,10.406 23.244,23.244 V -23.244 C 23.244,-10.407 12.838,0 0,0 Z"
             style="fill:none;stroke:#000000;stroke-width:15;stroke-linecap:round;stroke-linejoin:round;stroke-miterlimit:10;stroke-dasharray:none;stroke-opacity:1"
             id="path4718" /></g><g
           id="g4720"
           transform="translate(167.5849,300.5644)"><path
             d="m 0,0 c -12.838,0 -23.244,-10.407 -23.244,-23.244 v -181.525 c 0,-12.838 10.406,-23.244 23.244,-23.244 12.838,0 23.244,10.406 23.244,23.244 V -23.244 C 23.244,-10.407 12.838,0 0,0 Z"
             style="fill:none;stroke:#000000;stroke-width:15;stroke-linecap:round;stroke-linejoin:round;stroke-miterlimit:10;stroke-dasharray:none;stroke-opacity:1"
             id="path4722" /></g><g
           id="g4724"
           transform="translate(344.4151,300.5644)"><path
             d="m 0,0 c 12.838,0 23.244,-10.407 23.244,-23.244 v -181.525 c 0,-12.838 -10.406,-23.244 -23.244,-23.244 -12.838,0 -23.244,10.406 -23.244,23.244 V -23.244 C -23.244,-10.407 -12.838,0 0,0 Z"
             style="fill:none;stroke:#000000;stroke-width:15;stroke-linecap:round;stroke-linejoin:round;stroke-miterlimit:10;stroke-dasharray:none;stroke-opacity:1"
             id="path4726" /></g><g
           id="g4728"
           transform="translate(185.6327,400.4716)"><path
             d="M 0,0 V -12.735"
             style="fill:none;stroke:#000000;stroke-width:15;stroke-linecap:round;stroke-linejoin:round;stroke-miterlimit:10;stroke-dasharray:none;stroke-opacity:1"
             id="path4730" /></g><g
           id="g4732"
           transform="translate(326.3672,400.4716)"><path
             d="M 0,0 V -12.735"
             style="fill:none;stroke:#000000;stroke-width:15;stroke-linecap:round;stroke-linejoin:round;stroke-miterlimit:10;stroke-dasharray:none;stroke-opacity:1"
             id="path4734" /></g><g
           id="g4736"
           transform="translate(273.3675,388.6224)"><path
             d="m 0,0 c -4.098,-4.688 -10.356,-7.684 -17.368,-7.684 -7.012,0 -13.27,2.996 -17.367,7.684"
             style="fill:none;stroke:#000000;stroke-width:15;stroke-linecap:round;stroke-linejoin:round;stroke-miterlimit:10;stroke-dasharray:none;stroke-opacity:1"
             id="path4738" /></g><g
           id="g4740"
           transform="translate(210.0663,429.4336)"><path
             d="m 0,0 6.981,21.894 c 0.137,0.43 0.26,0.864 0.368,1.301 1.687,6.85 7.792,11.634 14.846,11.634 h 47.478 c 7.055,0 13.16,-4.784 14.847,-11.634 0.107,-0.438 0.23,-0.872 0.367,-1.301 L 91.868,0 h 42.234 L 123.405,33.544 C 117.029,58.031 95.041,75.066 69.673,75.066 H 22.195 c -25.369,0 -47.357,-17.035 -53.732,-41.521 L -42.234,0 Z"
             style="fill:none;stroke:#000000;stroke-width:15;stroke-linecap:round;stroke-linejoin:round;stroke-miterlimit:10;stroke-dasharray:none;stroke-opacity:1"
             id="path4742" /></g><g
           id="g4744"
           transform="translate(454.0234,370.8297)"><path
             d="m 0,0 -4.531,17.771 c -6.125,24.022 -27.759,40.833 -52.55,40.833 h -281.885 c -24.79,0 -46.425,-16.811 -52.55,-40.833 L -396.047,0 c -2.625,-10.294 5.153,-20.304 15.776,-20.304 H -15.776 C -5.153,-20.304 2.625,-10.294 0,0 Z"
             style="fill:none;stroke:#000000;stroke-width:15;stroke-linecap:round;stroke-linejoin:round;stroke-miterlimit:10;stroke-dasharray:none;stroke-opacity:1"
             id="path4746" /></g><g
           id="g4748"
           transform="translate(79.9261,300.5645)"><path
             d="m 0,0 h -40.041 c -7.031,0 -12.016,-6.862 -9.842,-13.549 l 6.349,-19.538 c 1.386,-4.264 5.36,-7.151 9.844,-7.151 H 4.972 Z"
             style="fill:none;stroke:#000000;stroke-width:15;stroke-linecap:round;stroke-linejoin:round;stroke-miterlimit:10;stroke-dasharray:none;stroke-opacity:1"
             id="path4750" /></g><g
           id="g4752"
           transform="translate(472.1141,300.5645)"><path
             d="m 0,0 h -40.041 l -4.971,-40.238 H -6.35 c 4.484,0 8.457,2.887 9.843,7.151 l 6.35,19.538 C 12.017,-6.862 7.032,0 0,0 Z"
             style="fill:none;stroke:#000000;stroke-width:15;stroke-linecap:round;stroke-linejoin:round;stroke-miterlimit:10;stroke-dasharray:none;stroke-opacity:1"
             id="path4754" /></g><g
           id="g4756"
           transform="translate(104.6405,100.551)"><path
             d="m 0,0 7.519,-60.853 c 2.89,-18.533 18.851,-32.198 37.608,-32.198 h 212.465 c 18.757,0 34.718,13.665 37.608,32.198 L 314.087,92"
             style="fill:none;stroke:#000000;stroke-width:15;stroke-linecap:round;stroke-linejoin:round;stroke-miterlimit:10;stroke-dasharray:none;stroke-opacity:1"
             id="path4758" /></g><g
           id="g4760"
           transform="translate(422.4344,222.551)"><path
             d="M 0,0 15.813,127.975 H -348.682 L -321.501,-92"
             style="fill:none;stroke:#000000;stroke-width:15;stroke-linecap:round;stroke-linejoin:round;stroke-miterlimit:10;stroke-dasharray:none;stroke-opacity:1"
             id="path4762" /></g></g></g></g></svg>
