<?xml version="1.0" encoding="UTF-8" standalone="no"?>
<!-- Created with Inkscape (http://www.inkscape.org/) -->

<svg
   version="1.1"
   id="svg2976"
   xml:space="preserve"
   width="682.66669"
   height="682.66669"
   viewBox="0 0 682.66669 682.66669"
   xmlns="http://www.w3.org/2000/svg"
   xmlns:svg="http://www.w3.org/2000/svg"><defs
     id="defs2980"><clipPath
       clipPathUnits="userSpaceOnUse"
       id="clipPath2990"><path
         d="M 0,512 H 512 V 0 H 0 Z"
         id="path2988" /></clipPath></defs><g
     id="g2982"
     transform="matrix(1.3333333,0,0,-1.3333333,0,682.66667)"><g
       id="g2984"><g
         id="g2986"
         clip-path="url(#clipPath2990)"><g
           id="g2992"
           transform="translate(255.9999,300.5644)"><path
             d="m 0,0 c -12.838,0 -23.244,-10.407 -23.244,-23.244 v -181.525 c 0,-12.838 10.406,-23.244 23.244,-23.244 12.838,0 23.244,10.406 23.244,23.244 V -23.244 C 23.244,-10.407 12.838,0 0,0 Z"
             style="fill:none;stroke:#000000;stroke-width:15;stroke-linecap:round;stroke-linejoin:round;stroke-miterlimit:10;stroke-dasharray:none;stroke-opacity:1"
             id="path2994" /></g><g
           id="g2996"
           transform="translate(167.5848,300.5644)"><path
             d="m 0,0 c -12.838,0 -23.244,-10.407 -23.244,-23.244 v -181.525 c 0,-12.838 10.406,-23.244 23.244,-23.244 12.838,0 23.244,10.406 23.244,23.244 V -23.244 C 23.244,-10.407 12.838,0 0,0 Z"
             style="fill:none;stroke:#000000;stroke-width:15;stroke-linecap:round;stroke-linejoin:round;stroke-miterlimit:10;stroke-dasharray:none;stroke-opacity:1"
             id="path2998" /></g><g
           id="g3000"
           transform="translate(344.4149,300.5644)"><path
             d="m 0,0 c 12.838,0 23.244,-10.407 23.244,-23.244 v -181.525 c 0,-12.838 -10.406,-23.244 -23.244,-23.244 -12.838,0 -23.244,10.406 -23.244,23.244 V -23.244 C -23.244,-10.407 -12.838,0 0,0 Z"
             style="fill:none;stroke:#000000;stroke-width:15;stroke-linecap:round;stroke-linejoin:round;stroke-miterlimit:10;stroke-dasharray:none;stroke-opacity:1"
             id="path3002" /></g><g
           id="g3004"
           transform="translate(185.6326,400.4716)"><path
             d="M 0,0 V -12.735"
             style="fill:none;stroke:#000000;stroke-width:15;stroke-linecap:round;stroke-linejoin:round;stroke-miterlimit:10;stroke-dasharray:none;stroke-opacity:1"
             id="path3006" /></g><g
           id="g3008"
           transform="translate(326.3671,400.4716)"><path
             d="M 0,0 V -12.735"
             style="fill:none;stroke:#000000;stroke-width:15;stroke-linecap:round;stroke-linejoin:round;stroke-miterlimit:10;stroke-dasharray:none;stroke-opacity:1"
             id="path3010" /></g><g
           id="g3012"
           transform="translate(273.3674,388.6224)"><path
             d="m 0,0 c -4.098,-4.688 -10.355,-7.684 -17.368,-7.684 -7.012,0 -13.27,2.996 -17.367,7.684"
             style="fill:none;stroke:#000000;stroke-width:15;stroke-linecap:round;stroke-linejoin:round;stroke-miterlimit:10;stroke-dasharray:none;stroke-opacity:1"
             id="path3014" /></g><g
           id="g3016"
           transform="translate(210.0661,429.4336)"><path
             d="m 0,0 6.981,21.894 c 0.137,0.43 0.26,0.864 0.368,1.301 1.687,6.85 7.792,11.634 14.846,11.634 h 47.478 c 7.055,0 13.16,-4.784 14.847,-11.634 0.107,-0.438 0.23,-0.872 0.367,-1.301 L 91.868,0 h 42.234 L 123.405,33.544 C 117.029,58.031 95.041,75.066 69.673,75.066 H 22.195 c -25.369,0 -47.357,-17.035 -53.732,-41.521 L -42.234,0 Z"
             style="fill:none;stroke:#000000;stroke-width:15;stroke-linecap:round;stroke-linejoin:round;stroke-miterlimit:10;stroke-dasharray:none;stroke-opacity:1"
             id="path3018" /></g><g
           id="g3020"
           transform="translate(454.0233,370.8297)"><path
             d="m 0,0 -4.531,17.771 c -6.125,24.022 -27.759,40.833 -52.55,40.833 h -281.885 c -24.79,0 -46.425,-16.811 -52.55,-40.833 L -396.047,0 c -2.625,-10.294 5.153,-20.304 15.776,-20.304 H -15.776 C -5.153,-20.304 2.625,-10.294 0,0 Z"
             style="fill:none;stroke:#000000;stroke-width:15;stroke-linecap:round;stroke-linejoin:round;stroke-miterlimit:10;stroke-dasharray:none;stroke-opacity:1"
             id="path3022" /></g><g
           id="g3024"
           transform="translate(79.926,300.5645)"><path
             d="m 0,0 h -40.041 c -7.031,0 -12.016,-6.862 -9.842,-13.549 l 6.349,-19.538 c 1.386,-4.264 5.36,-7.151 9.844,-7.151 H 4.972 Z"
             style="fill:none;stroke:#000000;stroke-width:15;stroke-linecap:round;stroke-linejoin:round;stroke-miterlimit:10;stroke-dasharray:none;stroke-opacity:1"
             id="path3026" /></g><g
           id="g3028"
           transform="translate(472.114,300.5645)"><path
             d="m 0,0 h -40.041 l -4.971,-40.238 H -6.35 c 4.484,0 8.457,2.887 9.843,7.151 l 6.35,19.538 C 12.017,-6.862 7.032,0 0,0 Z"
             style="fill:none;stroke:#000000;stroke-width:15;stroke-linecap:round;stroke-linejoin:round;stroke-miterlimit:10;stroke-dasharray:none;stroke-opacity:1"
             id="path3030" /></g><g
           id="g3032"
           transform="translate(104.6404,100.551)"><path
             d="m 0,0 7.519,-60.853 c 2.89,-18.533 18.851,-32.198 37.608,-32.198 h 212.465 c 18.757,0 34.718,13.665 37.608,32.198 L 314.087,92"
             style="fill:none;stroke:#000000;stroke-width:15;stroke-linecap:round;stroke-linejoin:round;stroke-miterlimit:10;stroke-dasharray:none;stroke-opacity:1"
             id="path3034" /></g><g
           id="g3036"
           transform="translate(422.4343,222.551)"><path
             d="M 0,0 15.813,127.975 H -348.682 L -321.501,-92"
             style="fill:none;stroke:#000000;stroke-width:15;stroke-linecap:round;stroke-linejoin:round;stroke-miterlimit:10;stroke-dasharray:none;stroke-opacity:1"
             id="path3038" /></g></g></g></g></svg>
