<?xml version="1.0" encoding="UTF-8" standalone="no"?>
<!-- Created with Inkscape (http://www.inkscape.org/) -->

<svg
   version="1.1"
   id="svg87"
   xml:space="preserve"
   width="682.66669"
   height="682.66669"
   viewBox="0 0 682.66669 682.66669"
   xmlns="http://www.w3.org/2000/svg"
   xmlns:svg="http://www.w3.org/2000/svg"><defs
     id="defs91"><clipPath
       clipPathUnits="userSpaceOnUse"
       id="clipPath101"><path
         d="M 0,512 H 512 V 0 H 0 Z"
         id="path99" /></clipPath><clipPath
       clipPathUnits="userSpaceOnUse"
       id="clipPath121"><path
         d="M 0,512 H 512 V 0 H 0 Z"
         id="path119" /></clipPath></defs><g
     id="g93"
     transform="matrix(1.3333333,0,0,-1.3333333,0,682.66667)"><g
       id="g95"><g
         id="g97"
         clip-path="url(#clipPath101)"><g
           id="g103"
           transform="translate(814.1631,449.2314)"><path
             d="m 0,0 c -16.016,-9.815 -36.311,-9.815 -52.326,0 -54.426,33.356 -126.55,26.473 -173.673,-20.649 -86.468,-86.469 -71.727,-223.807 159.546,-374.589 24.464,-15.95 56.115,-15.95 80.58,0 231.273,150.782 246.014,288.12 159.545,374.589 C 126.55,26.473 54.426,33.356 0,0"
             style="fill:#fd5c6f;fill-opacity:1;fill-rule:nonzero;stroke:none"
             id="path105" /></g><g
           id="g107"
           transform="translate(686.6211,250.5752)"><path
             d="m 0,0 c -21.876,47.094 5.251,102.493 55.895,113.965 90.762,20.562 100.688,98.201 100.688,98.201 -10.05,-3.344 -19.802,-7.847 -29.041,-13.51 -16.016,-9.815 -36.311,-9.815 -52.326,0 -54.426,33.356 -126.55,26.473 -173.673,-20.649 -86.468,-86.468 -71.727,-223.806 159.546,-374.589 24.464,-15.95 56.115,-15.95 80.58,0 17.773,11.588 34.266,23.095 49.534,34.507 C 77.92,-114.689 24.526,-52.798 0,0"
             style="fill:#f6334c;fill-opacity:1;fill-rule:nonzero;stroke:none"
             id="path109" /></g><g
           id="g111"
           transform="translate(588.1646,428.582)"><path
             d="m 0,0 c -86.468,-86.468 -71.728,-223.806 159.545,-374.589 24.465,-15.95 56.116,-15.95 80.58,0 30.98,20.198 58.074,40.154 81.56,59.779"
             style="fill:none;stroke:#000000;stroke-width:15;stroke-linecap:round;stroke-linejoin:round;stroke-miterlimit:10;stroke-dasharray:none;stroke-opacity:1"
             id="path113" /></g></g></g><g
       id="g115"><g
         id="g117"
         clip-path="url(#clipPath121)"><g
           id="g123"
           transform="translate(490.8701,127.9429)"><path
             d="m 0,0 -100.658,100.659 c -15.132,15.132 -15.132,39.665 0,54.797 L 0,256.114 c 18.173,18.173 18.173,47.637 0,65.81 l -41.003,41.003 c -18.173,18.173 -47.637,18.173 -65.81,0 L -207.472,262.269 c -15.132,-15.132 -39.665,-15.132 -54.797,0 l -100.658,100.658 c -18.173,18.173 -47.637,18.173 -65.81,0 l -41.003,-41.003 c -18.173,-18.173 -18.173,-47.637 0,-65.81 l 100.658,-100.658 c 15.132,-15.132 15.132,-39.665 0,-54.797 L -469.74,0 c -18.173,-18.173 -18.173,-47.637 0,-65.81 l 41.003,-41.003 c 18.173,-18.173 47.637,-18.173 65.81,0 l 100.658,100.658 c 15.132,15.132 39.665,15.132 54.797,0 l 100.659,-100.658 c 18.173,-18.173 47.637,-18.173 65.81,0 L 0,-65.81 C 18.173,-47.637 18.173,-18.173 0,0"
             style="fill:#ff8a98;fill-opacity:1;fill-rule:nonzero;stroke:none"
             id="path125" /></g><g
           id="g127"
           transform="translate(145.6958,473.1177)"><path
             d="m 0,0 -17.753,17.753 c -18.173,18.172 -47.637,18.172 -65.81,0 l -41.003,-41.003 c -18.173,-18.173 -18.173,-47.638 0,-65.811 l 100.658,-100.658 c 15.132,-15.132 15.132,-39.665 0,-54.797 l -100.658,-100.658 c -18.173,-18.173 -18.173,-47.638 0,-65.81 l 25.276,-25.276 c 0.021,38.823 26.129,62.878 26.129,62.878 l 135.434,135.435 c 20.66,20.658 20.66,54.154 0,74.812 l -79.11,79.111 c -17.917,17.916 -18.322,46.838 -0.914,65.25 z"
             style="fill:#fd5c6f;fill-opacity:1;fill-rule:nonzero;stroke:none"
             id="path129" /></g><g
           id="g131"
           transform="translate(384.0566,21.1299)"><path
             d="m 0,0 c 18.173,-18.173 47.637,-18.173 65.811,0 l 41.002,41.003 c 18.173,18.173 18.173,47.637 0,65.81 L 6.155,207.472 c -15.132,15.132 -15.132,39.665 0,54.797 l 100.658,100.658 c 18.173,18.173 18.173,47.637 0,65.81 L 65.811,469.74 C 47.637,487.913 18.173,487.913 0,469.74 L -100.658,369.082 c -15.132,-15.132 -39.665,-15.132 -54.797,0 l -33.903,33.903"
             style="fill:none;stroke:#000000;stroke-width:15;stroke-linecap:round;stroke-linejoin:round;stroke-miterlimit:10;stroke-dasharray:none;stroke-opacity:1"
             id="path133" /></g><g
           id="g135"
           transform="translate(172.8867,445.9268)"><path
             d="m 0,0 -44.944,44.943 c -18.173,18.173 -47.637,18.173 -65.81,0 L -151.757,3.94 c -18.173,-18.173 -18.173,-47.637 0,-65.81 l 100.658,-100.658 c 15.132,-15.132 15.132,-39.665 0,-54.797 l -100.658,-100.658 c -18.173,-18.174 -18.173,-47.638 0,-65.811 l 41.003,-41.003 c 18.173,-18.173 47.637,-18.173 65.811,0 l 100.658,100.658 c 15.132,15.132 39.665,15.132 54.797,0 l 77.122,-77.122"
             style="fill:none;stroke:#000000;stroke-width:15;stroke-linecap:round;stroke-linejoin:round;stroke-miterlimit:10;stroke-dasharray:none;stroke-opacity:1"
             id="path137" /></g></g></g></g></svg>
